# xmcd
#
# Track frame offsets:
#	150
#	16920
#	25735
#	41241
#	54963
#	78804
#	100509
#	116508
#	128905
#	151035
#	163133
#	179397
#	195116
#	216428
#	229247
#	243971
#
# Disc length: 3733 seconds
#
# Revision: 1
# Processed by: cddbd v1.4b41PL2 Copyright (c) Steve Scherf et al.
# Submitted via: audiograbber 1.80
#
DISCID=be0e9310
DTITLE=Christian Dozzler and the Blues Wave - Louisiana
DYEAR=1900
DGENRE=
TTITLE0=Christian Dozzler - Louisiana
TTITLE1=Christian Dozzler - It's Too Late
TTITLE2=Henry Gray - I Ain't Going For That
TTITLE3=Johnnie Allan - Wanting To Get Over You
TTITLE4=Ashton Savoy - Short Haired Woman
TTITLE5=Katie Webster - Early Morning Blues
TTITLE6=Ashton Savoy - You Can Get Your Gun
TTITLE7=Henry Gray - They Raided That Joint
TTITLE8=Katie Webster - Clean Up My Room
TTITLE9=Christian Dozzler - I'm Moving On
TTITLE10=Henry Gray - How Long Blues
TTITLE11=Ashton Savoy - Came Home This Morning
TTITLE12=Christian Dozzler - Blues At Sunset
TTITLE13=Christian Dozzler - Going Fishing
TTITLE14=Johnnie Allan - Swamp Gold Man
TTITLE15=Larry Garner - Dog House Blues
EXTD=
EXTT0=
EXTT1=
EXTT2=
EXTT3=
EXTT4=
EXTT5=
EXTT6=
EXTT7=
EXTT8=
EXTT9=
EXTT10=
EXTT11=
EXTT12=
EXTT13=
EXTT14=
EXTT15=
PLAYORDER=
